<svg id="Capa_1" enable-background="new 0 0 512 512" height="512" viewBox="0 0 512 512" width="512" xmlns="http://www.w3.org/2000/svg"><g><path d="m512 261.353v195.545c0 26.945-21.843 48.788-48.788 48.788h-299.288c-26.945 0-48.788-21.843-48.788-48.788v-278.916c0-31.222 25.31-56.532 56.532-56.532h200.429" fill="#e696a6"/><path d="m372.097 121.45v91.115c0 26.945 21.843 48.788 48.788 48.788h91.115z" fill="#e17888"/><g fill="#a6eddf"><path d="m88.016 136.749h-77.817c-5.632 0-10.199-4.566-10.199-10.199s4.567-10.199 10.199-10.199h77.817c5.632 0 10.199 4.566 10.199 10.199s-4.567 10.199-10.199 10.199z"/><path d="m120.236 104.529c-5.632 0-10.199-4.566-10.199-10.199v-77.817c0-5.633 4.567-10.199 10.199-10.199s10.199 4.566 10.199 10.199v77.817c0 5.633-4.566 10.199-10.199 10.199z"/></g></g></svg>